<?xml version="1.0" encoding="UTF-8"?>
<svg version="1.1" xmlns="http://www.w3.org/2000/svg" width="512" height="512">
<path d="M0 0 C0.90194709 -0.00382555 1.80389419 -0.00765109 2.73317301 -0.01159257 C5.75004155 -0.02189656 8.76671884 -0.01793533 11.78359985 -0.01396179 C13.94881872 -0.01830971 16.11403606 -0.02349313 18.2792511 -0.02944946 C24.15736199 -0.04284235 30.0354086 -0.04341778 35.91353178 -0.04088616 C40.82160733 -0.03981661 45.72966987 -0.04469945 50.63774264 -0.04949158 C62.21745885 -0.06058787 73.79714262 -0.06102354 85.37686157 -0.05497742 C97.32042439 -0.04893717 109.26386941 -0.06124973 121.20741212 -0.08254749 C131.46405646 -0.10016426 141.72066331 -0.1061647 151.97732222 -0.10290974 C158.1020952 -0.10109681 164.22678415 -0.10373419 170.35154343 -0.11762428 C176.11191478 -0.13019908 181.87210255 -0.12826165 187.63247108 -0.11521339 C189.74479166 -0.11284729 191.85712514 -0.1155835 193.96943092 -0.12383652 C196.85670506 -0.13430266 199.74336306 -0.12620413 202.63061523 -0.11352539 C203.87937142 -0.12458682 203.87937142 -0.12458682 205.153355 -0.13587171 C211.48117473 -0.07756188 217.17244797 0.95410217 222.18447876 5.12788391 C222.72330688 5.79046204 223.26213501 6.45304016 223.81729126 7.13569641 C224.37158813 7.79311829 224.92588501 8.45054016 225.49697876 9.12788391 C228.30711433 13.27473261 229.19244477 16.88039959 229.2097168 21.85733032 C229.22251175 23.52892212 229.22251175 23.52892212 229.23556519 25.23428345 C229.23465881 26.44738693 229.23375244 27.66049042 229.2328186 28.91035461 C229.23953583 30.19545929 229.24625305 31.48056396 229.25317383 32.80461121 C229.27081179 36.32335422 229.27552831 39.84199991 229.2768054 43.36078286 C229.27822896 45.5617926 229.28250247 47.76277774 229.28779984 49.96378136 C229.30629377 57.64992717 229.31447137 65.3360037 229.31289673 73.02217102 C229.31169593 80.17439911 229.33278762 87.32632514 229.36438406 94.47847682 C229.39058222 100.62898461 229.40126253 106.77939397 229.39998591 112.92995709 C229.39947725 116.59895434 229.4051064 120.26768311 229.42634201 123.93662453 C229.44940067 128.0322427 229.44018197 132.12718922 229.4281311 136.22285461 C229.43937012 137.42988541 229.45060913 138.6369162 229.46218872 139.88052368 C229.39922313 148.3083886 228.25126735 153.79781446 222.25479126 160.07319641 C212.54144143 166.48767272 202.53309764 165.6211918 191.37979126 165.44819641 C189.68644376 165.43312499 187.99308332 165.41944092 186.29971313 165.40718079 C182.17998737 165.37693317 178.06208361 165.31818189 173.94229126 165.26069641 C173.94229126 170.54069641 173.94229126 175.82069641 173.94229126 181.26069641 C175.05152954 181.23974915 176.16076782 181.21880188 177.30361938 181.19721985 C181.44834305 181.12441174 185.59301102 181.07874946 189.7381897 181.04096985 C191.5266981 181.02094682 193.3151418 180.99371987 195.10342407 180.9589386 C197.68529288 180.91000686 200.26629076 180.88763476 202.84854126 180.87007141 C203.63845459 180.84942627 204.42836792 180.82878113 205.24221802 180.80751038 C211.96264781 180.80483944 217.11328154 182.78161647 222.18447876 187.22554016 C222.72330688 187.87651672 223.26213501 188.52749329 223.81729126 189.19819641 C224.37158813 189.84659485 224.92588501 190.49499329 225.49697876 191.16304016 C228.8713893 196.06049546 229.23980525 200.59312998 229.2328186 206.41230774 C229.23953583 207.21948746 229.24625305 208.02666718 229.25317383 208.85830688 C229.27213064 211.51984357 229.27607697 214.18112772 229.27822876 216.84272766 C229.28465876 218.69971825 229.29138728 220.55670782 229.29840088 222.41369629 C229.31036818 226.30485888 229.31408231 230.19593273 229.31289673 234.08711243 C229.31269368 239.0603063 229.3399838 244.03292784 229.37444115 249.00598621 C229.39673803 252.84171128 229.4007334 256.67729928 229.39967728 260.5130825 C229.40202949 262.34581663 229.41083157 264.17855475 229.42634201 266.01122475 C229.44605689 268.58151814 229.44014274 271.15058609 229.4281311 273.72090149 C229.43937012 274.46974609 229.45060913 275.2185907 229.46218872 275.99012756 C229.38562078 282.47556107 227.24513012 287.58492818 223.01260376 292.50288391 C222.37065063 293.04171204 221.72869751 293.58054016 221.06729126 294.13569641 C220.43049438 294.68999329 219.79369751 295.24429016 219.13760376 295.81538391 C213.75391768 299.35980357 208.47784704 299.53843493 202.26260376 299.45600891 C201.44983978 299.45317902 200.63707581 299.45034912 199.79968262 299.44743347 C197.22206451 299.4363026 194.64480307 299.41121156 192.06729126 299.38569641 C190.31208797 299.37565743 188.5568792 299.36653318 186.80166626 299.35835266 C182.515072 299.33638656 178.22874196 299.30190619 173.94229126 299.26069641 C173.95276489 299.9353595 173.96323853 300.61002258 173.97402954 301.30513 C174.01606578 304.41527963 174.04176689 307.52536915 174.06729126 310.63569641 C174.08404907 311.69659485 174.10080688 312.75749329 174.11807251 313.85054016 C174.22492543 331.26756554 168.79180071 345.65777299 156.84854126 358.51460266 C147.8331025 367.12173351 136.7711228 371.01730712 124.94229126 374.26069641 C125.62033813 374.73378235 126.29838501 375.20686829 126.99697876 375.69429016 C152.34612329 393.70552443 169.10182188 417.15805799 175.25088501 447.81929016 C177.2079441 459.40534266 177.15831002 471.12033654 177.18252563 482.83564758 C177.19235385 485.71654348 177.22352408 488.59676023 177.25479126 491.47749329 C177.26131198 493.32058807 177.26656609 495.16368787 177.27041626 497.00679016 C177.28893646 498.28966164 177.28893646 498.28966164 177.30783081 499.59844971 C177.29021518 504.30457078 177.02474553 507.44890306 173.94229126 511.26069641 C171.32215109 512.5707665 169.39570665 512.3885286 166.45993233 512.39212418 C165.28799611 512.39596532 164.1160599 512.39980647 162.90861046 512.40376401 C161.609806 512.40289753 160.31100153 512.40203104 158.97283936 512.40113831 C157.58803025 512.40372054 156.20322189 512.4067333 154.81841457 512.41014171 C150.99972319 512.41823152 147.18105059 512.42000238 143.36235166 512.42073917 C139.24911063 512.42258628 135.13587942 512.43013184 131.02264404 512.43687439 C122.02278227 512.45047197 113.02292494 512.45648456 104.0230546 512.46088505 C98.40708096 512.46364489 92.79110904 512.46788174 87.17513657 512.47238922 C71.63622457 512.48458341 56.09731397 512.49488265 40.55839729 512.49826431 C39.5633564 512.49848388 38.56831551 512.49870344 37.54312187 512.49892966 C36.54565738 512.49914794 35.54819289 512.49936622 34.52050221 512.49959111 C32.49915194 512.50003458 30.47780168 512.50048115 28.45645142 512.50093079 C27.4537851 512.50115222 26.45111878 512.50137365 25.41806863 512.50160179 C9.16402984 512.50555147 -7.08996417 512.52301003 -23.34398566 512.54629031 C-40.01853307 512.5699808 -56.69305798 512.5824651 -73.36762249 512.58363223 C-82.73513611 512.58455025 -92.10259138 512.59033454 -101.47008896 512.60845184 C-109.4453406 512.62382176 -117.42051585 512.62899173 -125.39577948 512.62071374 C-129.4671322 512.61679625 -133.53833095 512.6177901 -137.60966492 512.63177109 C-141.33416939 512.64444447 -145.05840316 512.64337083 -148.7829069 512.63118038 C-150.774129 512.62827681 -152.76535549 512.64020866 -154.75654113 512.65260243 C-155.93369284 512.64601259 -157.11084455 512.63942275 -158.32366753 512.63263321 C-159.34175275 512.6332303 -160.35983797 512.63382739 -161.40877426 512.63444257 C-164.49152377 512.19948814 -165.84405269 511.42256329 -168.05770874 509.26069641 C-169.37391707 505.31207141 -169.22026688 501.52997625 -169.22567749 497.41304016 C-169.23067009 496.08509178 -169.23067009 496.08509178 -169.23576355 494.73031616 C-169.24083302 492.8464866 -169.24317187 490.96264803 -169.24301147 489.07881165 C-169.24516082 486.2610222 -169.26321074 483.44364894 -169.28231812 480.62593079 C-169.38941237 446.78675706 -161.82372797 418.02657016 -139.05770874 392.26069641 C-138.44669312 391.56589172 -137.83567749 390.87108704 -137.20614624 390.15522766 C-131.28849035 383.8472583 -124.1579997 379.12718797 -117.05770874 374.26069641 C-118.25266968 373.89718079 -119.44763062 373.53366516 -120.67880249 373.15913391 C-137.13278513 368.0152104 -137.13278513 368.0152104 -144.05770874 362.26069641 C-144.8118103 361.6767511 -145.56591187 361.09280579 -146.34286499 360.49116516 C-157.32046632 351.49283085 -164.09263734 338.27591617 -166.05770874 324.26069641 C-166.13465021 322.24367172 -166.16576945 320.22447376 -166.15536499 318.20600891 C-166.15214233 317.09741516 -166.14891968 315.98882141 -166.14559937 314.84663391 C-166.13303101 313.13346985 -166.13303101 313.13346985 -166.12020874 311.38569641 C-166.11569702 310.22038391 -166.1111853 309.05507141 -166.10653687 307.85444641 C-166.09479655 304.98980996 -166.07837444 302.12528008 -166.05770874 299.26069641 C-167.13141724 299.28164368 -168.20512573 299.30259094 -169.31137085 299.32417297 C-173.33125235 299.3970947 -177.35107652 299.44268381 -181.37142944 299.48042297 C-183.10460269 299.50042051 -184.83770949 299.52762789 -186.57064819 299.56245422 C-206.47093488 299.95209416 -206.47093488 299.95209416 -214.39755249 293.29585266 C-214.92477905 292.6448761 -215.45200562 291.99389954 -215.99520874 291.32319641 C-216.54048218 290.67479797 -217.08575562 290.02639954 -217.64755249 289.35835266 C-220.95857956 284.43308525 -221.35521931 279.92541434 -221.34823608 274.10908508 C-221.35495331 273.30190536 -221.36167053 272.49472565 -221.36859131 271.66308594 C-221.38754812 269.00154926 -221.39149445 266.34026511 -221.39364624 263.67866516 C-221.40007624 261.82167458 -221.40680476 259.964685 -221.41381836 258.10769653 C-221.42578566 254.21653394 -221.42949979 250.32546009 -221.42831421 246.4342804 C-221.42811116 241.46108652 -221.45540128 236.48846498 -221.48985863 231.51540661 C-221.51215551 227.67968154 -221.51615088 223.84409354 -221.51509476 220.00831032 C-221.51744697 218.17557619 -221.52624905 216.34283808 -221.54175949 214.51016808 C-221.56147437 211.93987468 -221.55556022 209.37080673 -221.54354858 206.80049133 C-221.5547876 206.05164673 -221.56602661 205.30280212 -221.5776062 204.53126526 C-221.50101273 198.04366977 -219.37460671 192.90463167 -215.09286499 188.01850891 C-214.44188843 187.47968079 -213.79091187 186.94085266 -213.12020874 186.38569641 C-212.4718103 185.83139954 -211.82341187 185.27710266 -211.15536499 184.70600891 C-204.53577272 180.14502355 -200.73082212 181.26069641 -192.05770874 181.26069641 C-192.38770874 150.90069641 -192.71770874 120.54069641 -193.05770874 89.26069641 C-196.35770874 87.61069641 -199.65770874 85.96069641 -203.05770874 84.26069641 C-210.4331539 77.11939237 -213.1430698 71.56823861 -213.49520874 61.32319641 C-213.25583591 51.9776823 -210.30443693 45.80272878 -203.99130249 38.98725891 C-197.565895 33.24982435 -190.29326572 31.91719543 -181.92489624 32.06147766 C-172.44898121 32.71988593 -166.28646651 37.21413411 -160.05770874 44.26069641 C-155.40280433 51.27980227 -154.21349929 59.6637743 -155.68270874 67.88569641 C-157.79288821 75.80935043 -162.42560243 81.57147587 -169.05770874 86.26069641 C-174.35770874 89.26069641 -174.35770874 89.26069641 -177.05770874 89.26069641 C-177.05770874 119.62069641 -177.05770874 149.98069641 -177.05770874 181.26069641 C-173.42770874 181.26069641 -169.79770874 181.26069641 -166.05770874 181.26069641 C-166.08127441 179.22716003 -166.08127441 179.22716003 -166.10531616 177.15254211 C-166.16009664 172.06650359 -166.19423206 166.98049052 -166.22250366 161.89424133 C-166.23748156 159.70344134 -166.25787102 157.51267076 -166.2840271 155.32197571 C-166.52359257 134.72404286 -165.22899011 117.16942344 -150.44076538 101.4264679 C-136.89659538 87.75943796 -120.25451727 84.15893578 -101.6656189 84.03364563 C-98.1424934 84.0265008 -94.61982617 84.04461443 -91.09677124 84.06538391 C-89.21106111 84.0691233 -87.32534901 84.07196588 -85.43963623 84.07395935 C-80.52424567 84.08152303 -75.60897707 84.10110734 -70.69363403 84.12336731 C-65.65875904 84.14398406 -60.62386396 84.1529946 -55.58895874 84.16304016 C-45.74515574 84.18436153 -35.90144246 84.21840747 -26.05770874 84.26069641 C-26.06659119 83.42655212 -26.07547363 82.59240784 -26.08462524 81.73298645 C-26.16498349 73.84768238 -26.22578061 65.96251708 -26.26495743 58.07689667 C-26.28577628 54.0234013 -26.31398831 49.97024607 -26.35946655 45.91694641 C-26.40312972 42.00062751 -26.42688868 38.08463447 -26.43721771 34.16809082 C-26.4445726 32.67862829 -26.45893473 31.18918232 -26.48062897 29.69985962 C-26.60828295 20.56791748 -26.50054387 13.51500828 -20.34677124 6.23725891 C-19.5230603 5.56823547 -19.5230603 5.56823547 -18.68270874 4.88569641 C-18.13872437 4.42421204 -17.59473999 3.96272766 -17.03427124 3.48725891 C-11.57733368 0.10093798 -6.20656436 -0.02802578 0 0 Z M-9.56880856 16.96272278 C-11.35643822 19.7217565 -11.56246614 21.26227703 -11.57237244 24.53620911 C-11.58509689 25.60452469 -11.59782135 26.67284027 -11.6109314 27.77352905 C-11.60440552 28.94040756 -11.59787964 30.10728607 -11.59115601 31.30952454 C-11.59977158 32.54238693 -11.60838715 33.77524933 -11.61726379 35.04547119 C-11.63607844 38.42382878 -11.63681835 41.80120592 -11.62794232 45.17954063 C-11.62283167 48.00024422 -11.63012548 50.82085983 -11.6374144 53.64155436 C-11.65441378 60.29544168 -11.65084687 66.94909967 -11.63412476 73.60298157 C-11.6171967 80.46738235 -11.63304654 87.33114754 -11.66534764 94.19547892 C-11.69203563 100.0903133 -11.69932196 105.98494973 -11.69083256 111.87983847 C-11.68590168 115.40008751 -11.68812704 118.91995396 -11.70862007 122.44015503 C-11.7303715 126.36431314 -11.71158738 130.2877036 -11.68881226 134.21186829 C-11.70050446 135.3787468 -11.71219666 136.54562531 -11.72424316 137.74786377 C-11.78869847 143.89335678 -11.78869847 143.89335678 -8.74682617 148.98161316 C-5.21432675 150.66185248 -2.03778314 150.82695307 1.79776001 150.79975891 C2.54060745 150.81155182 3.2834549 150.82334473 4.04881287 150.835495 C6.40935479 150.87065725 8.76900913 150.87991785 11.12979126 150.88569641 C13.50101947 150.90203149 15.87185257 150.92401641 18.24290466 150.95732117 C19.71520272 150.97697786 21.18768262 150.98628313 22.66011047 150.98423767 C27.71881611 151.03722126 27.71881611 151.03722126 29.94229126 153.26069641 C30.26113892 155.69087219 30.26113892 155.69087219 30.35635376 158.70600891 C30.39502563 159.7823761 30.43369751 160.85874329 30.47354126 161.96772766 C30.50447876 163.09565735 30.53541626 164.22358704 30.56729126 165.38569641 C30.60596313 166.52136047 30.64463501 167.65702454 30.68447876 168.82710266 C30.77896727 171.63813597 30.86452667 174.44915874 30.94229126 177.26069641 C36.9086597 172.32774497 42.32526211 166.96119258 47.75479126 161.44819641 C49.44649278 159.73107488 51.14039074 158.01611359 52.83682251 156.30366516 C53.57779175 155.55109436 54.31876099 154.79852356 55.08218384 154.02314758 C58.30995016 150.96484005 60.48986883 151.13438082 64.84373474 151.12939453 C66.10138138 151.12538635 67.35902802 151.12137817 68.65478516 151.11724854 C70.05636599 151.11772366 71.4579468 151.11825978 72.85952759 151.11885071 C74.32952479 151.11581996 75.79952105 151.11229875 77.26951599 151.10832214 C80.43978289 151.10042593 83.6100385 151.0952855 86.78031349 151.09203148 C91.79321879 151.08612782 96.80605284 151.06959341 101.81892395 151.0506897 C103.53425689 151.04435209 105.24958988 151.03802647 106.9649229 151.03171253 C107.82404919 151.02854672 108.68317548 151.02538091 109.56833589 151.02211916 C121.241559 150.98002284 132.91474927 150.94706658 144.58804321 150.93476868 C152.45819885 150.92639213 160.32817855 150.90391586 168.19824618 150.86541301 C172.36402953 150.84563707 176.52954977 150.83325277 180.69538307 150.8382473 C184.61482948 150.84288907 188.53377722 150.82911472 192.45312309 150.8012352 C193.89102161 150.79431518 195.3289716 150.79420563 196.76686859 150.80143547 C198.73121423 150.81031416 200.69562638 150.79229186 202.65989685 150.77294922 C203.75884183 150.77056087 204.85778681 150.76817251 205.99003315 150.76571178 C209.7173457 150.12811505 211.3701726 149.01385637 213.94229126 146.26069641 C214.68385373 143.76599461 214.68385373 143.76599461 214.57048035 140.98518372 C214.58313431 139.91686813 214.59578827 138.84855255 214.60882568 137.74786377 C214.59128738 135.99754601 214.59128738 135.99754601 214.57339478 134.21186829 C214.58055008 132.97900589 214.58770538 131.74614349 214.59507751 130.47592163 C214.609091 127.09734695 214.60065503 123.72030223 214.58098722 120.34185219 C214.56459902 116.80563568 214.57341383 113.26946909 214.57850647 109.73323059 C214.58302728 103.79482926 214.56715876 97.85674293 214.53921509 91.91841125 C214.50716288 85.05406955 214.50717873 78.19029595 214.52442986 71.32591391 C214.54029695 64.7210589 214.53356033 58.11641207 214.51649284 51.51156616 C214.50962246 48.7014003 214.51065454 45.89140131 214.5180378 43.08123779 C214.52712549 39.15711327 214.50316081 35.23357195 214.47573853 31.30952454 C214.4822644 30.14264603 214.48879028 28.97576752 214.49551392 27.77352905 C214.48278946 26.70521347 214.470065 25.63689789 214.45695496 24.53620911 C214.45414804 23.60854988 214.45134111 22.68089066 214.44844913 21.72512054 C213.74570455 18.30353848 212.84035439 17.22500696 209.94229126 15.26069641 C206.92296689 14.86797656 204.26901938 14.72030458 201.25003052 14.75276184 C200.36330422 14.74652188 199.47657792 14.74028192 198.56298113 14.73385286 C195.58563337 14.71787199 192.60909852 14.73054708 189.63174438 14.74311829 C187.49973573 14.73769944 185.36773082 14.73057812 183.23573303 14.72187805 C177.44033855 14.70361366 171.6452283 14.71072519 165.84982872 14.72339439 C159.79116411 14.73350588 153.73252419 14.72413387 147.67385864 14.71784973 C137.49848043 14.71056794 127.32321827 14.72017505 117.14785767 14.73921204 C105.3757556 14.76098171 93.60393062 14.75393072 81.83183527 14.73190641 C71.73323774 14.71376763 61.63472373 14.71118666 51.53611517 14.72166109 C45.50085246 14.72790437 39.46572009 14.72870868 33.4304657 14.71551514 C27.75706544 14.70397947 22.08402319 14.71194081 16.4106617 14.73509216 C14.32569537 14.74039144 12.24069903 14.73884476 10.15574455 14.7300415 C7.31493716 14.71915068 4.47528526 14.73277138 1.634552 14.75276184 C0.80459607 14.74383895 -0.02535987 14.73491607 -0.88046598 14.72572279 C-4.38908338 14.77379033 -6.62984178 14.97068769 -9.56880856 16.96272278 Z M-195.87020874 52.82319641 C-198.38324475 55.86529263 -198.39188296 59.38879979 -198.34286499 63.19819641 C-197.76125143 67.40493562 -195.15757427 70.12154997 -192.30770874 73.07319641 C-188.20156733 75.2403266 -184.2948247 75.93462261 -179.86630249 74.60054016 C-175.56486849 72.6439026 -172.88578777 70.77712696 -171.05770874 66.26069641 C-169.88475327 62.40669986 -169.95832462 60.57541279 -171.18270874 56.69819641 C-173.66473166 52.14782107 -176.0555275 48.92809016 -181.05770874 47.26069641 C-187.7317532 46.63106958 -190.91858537 48.55455557 -195.87020874 52.82319641 Z M-140.05770874 112.26069641 C-147.98188838 122.15734501 -151.20823887 131.24982071 -151.20487976 143.95602417 C-151.20855645 144.7115191 -151.21223314 145.46701403 -151.21602124 146.24540275 C-151.22699898 148.76686507 -151.23089184 151.2882861 -151.23471069 153.80976868 C-151.24097987 155.62205128 -151.24762708 157.43433261 -151.25462341 159.24661255 C-151.27561439 165.19010024 -151.28602205 171.13358803 -151.29598999 177.07710266 C-151.30003958 179.12793936 -151.30415656 181.17877592 -151.30834007 183.22961235 C-151.32738186 192.86769441 -151.34161429 202.50576887 -151.34995204 212.14386612 C-151.35971707 223.24671551 -151.38602175 234.34936516 -151.42645293 245.45214421 C-151.45667624 254.04857724 -151.47142685 262.64495322 -151.47473305 271.24143833 C-151.47707666 276.36876773 -151.48594697 281.49588348 -151.51119423 286.62315559 C-151.53458858 291.45200334 -151.53866277 296.28049848 -151.52843285 301.10938835 C-151.52794011 302.87292025 -151.53418238 304.6364702 -151.54798889 306.39994812 C-151.65949727 321.4983484 -149.88184197 335.09276579 -138.95223999 346.44819641 C-129.4740647 355.32277018 -119.93206236 358.57161905 -107.10942078 358.52812195 C-106.12368692 358.53265306 -105.13795307 358.53718417 -104.12234849 358.54185259 C-100.8277233 358.55448693 -97.53326363 358.55287682 -94.23861694 358.55122375 C-91.87284635 358.55720966 -89.50707772 358.56401535 -87.14131165 358.57157898 C-80.71962718 358.58924129 -74.29799602 358.59393451 -67.87628961 358.59521055 C-63.86178358 358.59619997 -59.84728684 358.60077574 -55.83278465 358.60620499 C-42.54324094 358.62381044 -29.25372947 358.63304514 -15.96417401 358.63154404 C-14.89056037 358.63142417 -14.89056037 358.63142417 -13.79525757 358.63130188 C-12.72032376 358.63117924 -12.72032376 358.63117924 -11.62367412 358.63105412 C-0.01828857 358.63024178 11.58696702 358.64936804 23.192315 358.67757861 C35.12553475 358.70635584 47.05869122 358.7201162 58.99194652 358.71839106 C65.68471753 358.71772875 72.37733196 358.72354355 79.07007408 358.74474716 C85.36810941 358.76415546 91.6658578 358.76423595 97.96390343 358.7497139 C100.26966777 358.74762784 102.57545019 358.75231445 104.88118362 358.76443481 C120.78567198 358.84259381 133.72740403 358.72244994 145.94229126 347.26069641 C146.5803772 346.66386047 147.21846313 346.06702454 147.87588501 345.45210266 C155.71206771 337.34628786 159.07141604 326.79580148 159.06254578 315.69909668 C159.0634002 315.05370683 159.06425463 314.40831699 159.06513494 313.74336988 C159.06677695 311.58920469 159.0612894 309.43511805 159.05581665 307.28096008 C159.05553448 305.73344423 159.0556931 304.18592825 159.05625916 302.63841248 C159.05654595 298.44254963 159.05066821 294.24671541 159.0436852 290.05085921 C159.0374321 285.66396336 159.03684631 281.27706685 159.03565979 276.89016724 C159.03255225 268.5852831 159.02434663 260.28041213 159.0143103 251.97553378 C159.00313125 242.51973498 158.99763419 233.06393554 158.99261487 223.60813177 C158.98216355 204.15897766 158.96382522 184.70984162 158.94229126 165.26069641 C148.05229126 165.26069641 137.16229126 165.26069641 125.94229126 165.26069641 C127.92229126 168.56069641 129.90229126 171.86069641 131.94229126 175.26069641 C136.71599397 185.29433073 136.5295391 194.62099772 136.47354126 205.50679016 C136.4762419 207.36804405 136.48012905 209.22929655 136.48513794 211.09054565 C136.49100758 214.97625772 136.48255332 218.86159991 136.46377563 222.74726868 C136.44100361 227.69754002 136.45411428 232.64694281 136.47806549 237.59718227 C136.49260604 241.43652746 136.48787962 245.27567099 136.47755432 249.11502266 C136.47490895 250.93884957 136.47807858 252.76269553 136.48747253 254.58650017 C136.55293529 270.86563869 134.0061989 283.47977866 122.81729126 295.94819641 C114.21519796 304.14974878 102.49228611 307.57909605 90.854599 307.52812195 C90.08106101 307.53265306 89.30752302 307.53718417 88.51054448 307.54185259 C85.93996105 307.5544289 83.36959134 307.55288063 80.79898071 307.55122375 C78.94699331 307.55721332 77.0950084 307.56401985 75.24302673 307.57157898 C70.22624524 307.58920452 65.20953203 307.59393296 60.19272256 307.59521055 C57.05343881 307.59663488 53.91417227 307.60090986 50.77489281 307.60620499 C39.8086271 307.62469521 28.84240993 307.63287703 17.87612915 307.63130188 C7.67759192 307.63010138 -2.52073337 307.65118848 -12.719217 307.68278921 C-21.49404123 307.70900307 -30.26879646 307.71966701 -39.04365951 307.71839106 C-44.27602046 307.71788285 -49.50819304 307.72348772 -54.74051476 307.74474716 C-59.6662547 307.76421529 -64.59162825 307.7641957 -69.51738167 307.7497139 C-71.31638504 307.74763517 -73.11541186 307.7522703 -74.91437531 307.76443481 C-89.06608747 307.85386392 -101.63989617 306.49833611 -113.05770874 297.26069641 C-113.97809937 296.54333313 -113.97809937 296.54333313 -114.91708374 295.81147766 C-121.66910918 289.88104824 -126.7176562 280.11479901 -128.05770874 271.26069641 C-128.16512436 268.52063466 -128.22500998 265.80513029 -128.23471069 263.06489563 C-128.24128189 262.25278122 -128.24785309 261.44066681 -128.25462341 260.60394287 C-128.27428289 257.92442213 -128.28600414 255.24495733 -128.29598999 252.56538391 C-128.30006552 251.64593113 -128.30414104 250.72647835 -128.30834007 249.77916336 C-128.32917201 244.9100543 -128.34348475 240.04097315 -128.35287476 235.17182922 C-128.36391812 230.16533536 -128.39830238 225.15928851 -128.43804646 220.15295219 C-128.46430595 216.28366826 -128.47257497 212.41448924 -128.47615623 208.54512405 C-128.48100004 206.70090347 -128.49255038 204.85668687 -128.51119423 203.01255417 C-128.60558362 193.05534314 -128.58478371 184.39506583 -124.05770874 175.26069641 C-123.58848999 174.26554016 -123.11927124 173.27038391 -122.63583374 172.24507141 C-116.17701398 161.37905699 -107.3642719 155.52835958 -95.29165649 151.70077515 C-92.29565037 151.11057397 -89.41508316 151.09495867 -86.36141968 151.05537415 C-85.36567932 151.04052475 -85.36567932 151.04052475 -84.349823 151.02537537 C-82.16394572 150.99388381 -79.97804674 150.96905204 -77.79208374 150.94429016 C-76.27321826 150.92370996 -74.75435836 150.9027132 -73.23550415 150.88131714 C-69.24399349 150.82620657 -65.25243209 150.77674888 -61.26083374 150.72846985 C-56.46830716 150.66932641 -51.67587303 150.60315921 -46.88342285 150.53816986 C-39.60824143 150.44029896 -32.33299984 150.35134824 -25.05770874 150.26069641 C-25.38770874 133.43069641 -25.71770874 116.60069641 -26.05770874 99.26069641 C-40.89656839 99.2024519 -40.89656839 99.2024519 -55.73544312 99.16304016 C-61.79431698 99.15111965 -67.85312996 99.13707081 -73.91195679 99.1098175 C-78.80084078 99.08796625 -83.6896594 99.07610204 -88.57858849 99.07094193 C-90.43674434 99.06726811 -92.29489692 99.06009451 -94.15302467 99.0492363 C-110.88892199 98.95539454 -127.53792362 99.4497535 -140.05770874 112.26069641 Z M-108.55770874 176.84272766 C-109.05270874 177.64065735 -109.54770874 178.43858704 -110.05770874 179.26069641 C-110.38863525 179.77662354 -110.71956177 180.29255066 -111.06051636 180.82411194 C-115.40092294 188.81491818 -114.63625013 197.6831321 -114.58895874 206.50679016 C-114.59165806 208.28601289 -114.59554413 210.06523418 -114.60055542 211.8444519 C-114.60643132 215.56220124 -114.59795048 219.27956447 -114.57919312 222.99726868 C-114.55642127 227.73930124 -114.5695274 232.48042715 -114.59348297 237.22242641 C-114.60800707 240.89356186 -114.60330455 244.56448597 -114.5929718 248.23562813 C-114.59032187 249.98295769 -114.59351256 251.73030704 -114.60289001 253.47761345 C-114.65220257 265.2478558 -114.2155393 275.69556378 -105.75692749 284.72944641 C-98.58591753 291.19159791 -90.84913413 293.57094396 -81.22866821 293.52812195 C-80.47090772 293.53265306 -79.71314723 293.53718417 -78.93242431 293.54185259 C-76.40934402 293.55444867 -73.88648092 293.55287934 -71.3633728 293.55122375 C-69.54769617 293.55721205 -67.73202208 293.56401829 -65.91635132 293.57157898 C-60.99468294 293.58921664 -56.07308415 293.59393345 -51.15138721 293.59521055 C-48.07293033 293.5966341 -44.99449102 293.60090758 -41.91603851 293.60620499 C-31.16605002 293.62469864 -20.41611106 293.63287653 -9.66610718 293.63130188 C0.33761389 293.63010102 10.34111901 293.65119431 20.34478545 293.68278921 C28.94716074 293.70898535 37.54946565 293.71966776 46.1518805 293.71839106 C51.28358956 293.71788236 56.41510667 293.72351434 61.54677582 293.74474716 C66.37646797 293.76418554 71.2057862 293.76421582 76.03549194 293.7497139 C77.80147094 293.74763156 79.56747369 293.75229216 81.33341217 293.76443481 C93.70349722 293.84393837 104.80003709 293.23542626 114.21963501 284.26069641 C120.23847865 277.27283259 122.08544179 270.66024616 122.11929321 261.62153625 C122.12915001 260.47432602 122.12915001 260.47432602 122.13920593 259.30393982 C122.15889071 256.77650341 122.17059283 254.24912639 122.18057251 251.72163391 C122.18464804 250.85517872 122.18872356 249.98872353 122.19292259 249.09601212 C122.21376614 244.50686636 122.22807339 239.91775032 122.23745728 235.3285675 C122.24849802 230.60778975 122.28287569 225.88748642 122.32262897 221.16687584 C122.34888206 217.52066726 122.35715695 213.87457006 122.36073875 210.2282753 C122.3655849 208.48928765 122.3771421 206.75030431 122.39577675 205.01140976 C122.50929733 193.71297291 122.27106749 183.36210023 114.37979126 174.44819641 C113.51160767 173.41759094 113.51160767 173.41759094 112.62588501 172.36616516 C104.20228896 165.75725938 93.95673733 163.36515458 83.44229126 162.76069641 C82.3586026 162.69583038 82.3586026 162.69583038 81.25302124 162.62965393 C70.21292064 162.28565888 63.19851254 165.6146143 55.07510376 173.00288391 C47.90894692 179.81144485 41.23415356 187.14331952 34.86346436 194.69841003 C33.97556717 195.74897079 33.97556717 195.74897079 33.06973267 196.820755 C32.55939484 197.43808502 32.04905701 198.05541504 31.52325439 198.69145203 C29.74731362 200.4542288 28.28089144 201.37653629 25.94229126 202.26069641 C22.25479126 202.01069641 22.25479126 202.01069641 18.94229126 201.26069641 C17.41482736 198.20576862 17.70237294 194.98436501 17.62588501 191.62788391 C17.60510391 190.87604828 17.58432281 190.12421265 17.56291199 189.34959412 C17.49746421 186.94505556 17.43855388 184.54040674 17.37979126 182.13569641 C17.33660149 180.5067787 17.29298705 178.87787219 17.24893188 177.24897766 C17.14178775 173.25299726 17.04050693 169.25690582 16.94229126 165.26069641 C3.0682408 165.12003983 -10.80569784 165.01488892 -24.68031693 164.94982338 C-31.12374955 164.91858612 -37.56670127 164.87625099 -44.00985718 164.80805969 C-50.23446085 164.74259794 -56.45860359 164.70693324 -62.68352509 164.69143295 C-65.0516866 164.68039482 -67.4198245 164.65884013 -69.78778839 164.62631607 C-91.52870633 164.30408097 -91.52870633 164.30408097 -108.55770874 176.84272766 Z M-201.05770874 196.26069641 C-206.13424596 200.92899 -206.13424596 200.92899 -206.73535156 206.77723694 C-206.72523041 207.48076294 -206.71510925 208.18428894 -206.7046814 208.90913391 C-206.71344299 209.66261108 -206.72220459 210.41608826 -206.73123169 211.19239807 C-206.75317372 213.6740896 -206.73869313 216.15398793 -206.72177124 218.63569641 C-206.72514091 220.36535483 -206.72999479 222.09501093 -206.73626709 223.82466125 C-206.74363132 227.44614755 -206.73294787 231.06701638 -206.70956421 234.68843079 C-206.68107613 239.32588346 -206.69748259 243.96188933 -206.72742653 248.59928894 C-206.745512 252.16990521 -206.73973587 255.74017959 -206.72678757 259.31080627 C-206.72345698 261.02040275 -206.72752845 262.73003047 -206.73918533 264.43959045 C-206.75191545 266.83131368 -206.73249086 269.22070873 -206.7046814 271.61225891 C-206.71480255 272.31578491 -206.72492371 273.01931091 -206.73535156 273.74415588 C-206.61112369 279.52376873 -205.65736823 279.66103692 -201.05770874 284.26069641 C-189.50770874 284.26069641 -177.95770874 284.26069641 -166.05770874 284.26069641 C-166.05770874 255.22069641 -166.05770874 226.18069641 -166.05770874 196.26069641 C-177.60770874 196.26069641 -189.15770874 196.26069641 -201.05770874 196.26069641 Z M173.94229126 196.26069641 C173.94229126 225.30069641 173.94229126 254.34069641 173.94229126 284.26069641 C185.49229126 284.26069641 197.04229126 284.26069641 208.94229126 284.26069641 C214.01882848 279.59240283 214.01882848 279.59240283 214.61993408 273.74415588 C214.60981293 273.04062988 214.59969177 272.33710388 214.58926392 271.61225891 C214.59802551 270.85878174 214.60678711 270.10530457 214.61581421 269.32899475 C214.63775624 266.84730322 214.62327565 264.36740489 214.60635376 261.88569641 C214.60972343 260.156038 214.61457731 258.42638189 214.62084961 256.69673157 C214.62821384 253.07524527 214.61753039 249.45437644 214.59414673 245.83296204 C214.56565865 241.19550936 214.58206511 236.55950349 214.61200905 231.92210388 C214.63009452 228.35148761 214.62431839 224.78121323 214.61137009 221.21058655 C214.6080395 219.50099007 214.61211097 217.79136235 214.62376785 216.08180237 C214.63649797 213.69007914 214.61707338 211.30068409 214.58926392 208.90913391 C214.59938507 208.20560791 214.60950623 207.50208191 214.61993408 206.77723694 C214.49570621 200.99762409 213.54195075 200.8603559 208.94229126 196.26069641 C197.39229126 196.26069641 185.84229126 196.26069641 173.94229126 196.26069641 Z M-64.05770874 373.26069641 C-63.22571298 387.21543872 -63.22571298 387.21543872 -60.87020874 400.76069641 C-60.65098755 401.73554993 -60.43176636 402.71040344 -60.2059021 403.71479797 C-56.04812646 421.46749226 -49.2949716 440.87931268 -33.74520874 451.82319641 C-29.43445007 454.12895105 -25.89099468 454.39080824 -21.02328491 454.42182922 C-19.19569893 454.43624054 -19.19569893 454.43624054 -17.33119202 454.45094299 C-16.01762222 454.45519287 -14.70405243 454.45944275 -13.35067749 454.46382141 C-11.98310852 454.46957864 -10.61553955 454.4753363 -9.24797058 454.48109436 C-6.38238145 454.49158604 -3.51682022 454.49744055 -0.6512146 454.50093079 C3.0070976 454.50640897 6.66503639 454.53042985 10.3232317 454.55890274 C13.1483719 454.57759729 15.97342341 454.58273834 18.79862022 454.58426666 C20.79876906 454.58873637 22.79887028 454.60734919 24.79893494 454.62623596 C34.69120454 454.60205732 40.63136341 453.1305032 47.96963501 446.31538391 C65.38419852 428.17665043 71.94229126 397.6346889 71.94229126 373.26069641 C27.06229126 373.26069641 -17.81770874 373.26069641 -64.05770874 373.26069641 Z M-127.05770874 402.26069641 C-127.85821655 403.05089172 -128.65872437 403.84108704 -129.48348999 404.65522766 C-154.40309201 430.60776656 -154.05770874 462.71947384 -154.05770874 497.26069641 C-49.77770874 497.26069641 54.50229126 497.26069641 161.94229126 497.26069641 C161.94229126 457.7310855 160.88868755 428.61353709 133.31729126 400.13569641 C123.17527819 390.07377337 111.27718955 383.20078389 97.94229126 378.26069641 C96.4128186 377.68835266 96.4128186 377.68835266 94.85244751 377.10444641 C92.01940555 376.28305438 89.86314677 376.19425041 86.94229126 376.26069641 C86.84730347 376.94881409 86.75231567 377.63693176 86.65444946 378.34590149 C82.67383952 406.73934414 77.44960294 439.95559267 54.94229126 460.26069641 C44.51348871 468.04580562 34.72659434 468.57575612 22.07510376 468.56147766 C20.63075642 468.56537294 19.1864102 468.56970929 17.74206543 468.57446289 C14.72462236 468.58189349 11.70729635 468.58165708 8.68984985 468.57637024 C4.84807961 468.57058199 1.00679249 468.58750606 -2.83489799 468.61071491 C-5.81543721 468.62554113 -8.79586247 468.62631193 -11.77643204 468.62320518 C-13.19163087 468.62371402 -14.60683683 468.62886822 -16.02199936 468.63901711 C-30.33518582 468.72907904 -40.26857656 466.30988112 -50.96005249 456.51850891 C-70.82876724 435.52344979 -75.29135262 403.54521519 -79.05770874 376.26069641 C-97.00654311 375.77139207 -115.11064591 390.17571655 -127.05770874 402.26069641 Z " fill="#912EF1" transform="translate(252.05770874023438,-0.2606964111328125)"/>
<path d="M0 0 C6.89693513 4.53151229 12.17071175 9.69045124 15.27734375 17.45703125 C17.07061648 26.72227369 16.76466765 35.02069081 12.02734375 43.33203125 C7.50570901 49.99734256 1.47781834 54.98230805 -6.44921875 56.9453125 C-15.54621862 58.33943477 -23.02693795 57.00271913 -31.09765625 52.64453125 C-37.17117816 47.7593071 -42.53118937 42.20861816 -43.97265625 34.33203125 C-44.9516118 24.10194577 -43.64557324 16.3175256 -38.28515625 7.58203125 C-28.13150178 -2.29720013 -13.21666369 -6.96520638 0 0 Z M-26.78515625 18.39453125 C-29.29112596 22.48321867 -29.5732296 26.66471832 -28.97265625 31.33203125 C-27.57915837 35.49573575 -25.40048417 38.37094783 -21.72265625 40.76953125 C-17.61134831 42.80317608 -14.51857156 42.90929034 -9.97265625 42.33203125 C-5.01745104 39.75913624 -1.48148662 36.34969199 1.02734375 31.33203125 C1.5474268 25.19505125 0.95641459 21.18197807 -2.97265625 16.33203125 C-6.50882415 13.04844677 -9.25442419 12.05164866 -13.97265625 11.83203125 C-19.67445565 12.07210701 -23.02395287 14.1145412 -26.78515625 18.39453125 Z " fill="#9E28F2" transform="translate(208.97265625,201.66796875)"/>
<path d="M0 0 C7.92120813 4.89574669 12.36050887 11.72215161 15.25 20.390625 C16.15640684 30.98518361 14.79348992 39.3128678 8.0625 47.703125 C2.47812124 53.63577684 -4.01106983 56.89654492 -12.109375 57.59375 C-21.47444439 57.77737881 -29.34132181 55.46041358 -36.30859375 48.9296875 C-42.13018101 42.74515839 -44.93929452 35.81027749 -45.1875 27.328125 C-44.76031924 17.49040343 -41.98786246 11.7272823 -35.16796875 4.5625 C-25.68668268 -3.95380865 -11.46089281 -5.35344335 0 0 Z M-26.75 17.390625 C-29.81939528 21.8461988 -30.70175722 26.10308486 -29.75 31.390625 C-27.17710499 36.34583021 -23.76766074 39.88179463 -18.75 42.390625 C-13.46445811 42.83855228 -9.7913273 42.64855585 -5.29296875 39.71484375 C-1.99312643 36.88282717 -0.18558536 33.67183493 0.62890625 29.40625 C0.93972614 24.23260276 -0.50447484 20.39682012 -3.75 16.390625 C-7.24580659 13.14451888 -10.01921658 12.09731282 -14.6875 11.828125 C-19.88942836 12.05531765 -23.17626812 13.62827949 -26.75 17.390625 Z " fill="#8135EF" transform="translate(331.75,201.609375)"/>
<path d="M0 0 C4.90929317 4.16174171 8.27096556 8.72896546 9.0546875 15.25390625 C9.14458403 22.05008356 8.74786158 27.78933947 4.71875 33.45703125 C-0.72671231 38.743336 -6.43299892 41.73162822 -14.09375 41.83203125 C-20.69179694 41.69440328 -25.04190882 40.30529024 -29.99609375 35.94921875 C-34.60754167 31.10099722 -37.18729929 25.60338919 -37.33984375 18.87109375 C-36.69514574 9.73558584 -33.11165778 4.80439825 -26.40625 -1.23046875 C-18.12445545 -6.3456948 -7.83987982 -5.57466864 0 0 Z M-20.28125 13.45703125 C-22.02818992 15.83922206 -22.30401273 17.00177658 -22.15625 19.95703125 C-21.05683862 23.09820662 -19.97265735 24.49303129 -17.28125 26.45703125 C-14.32433291 27.2071832 -14.32433291 27.2071832 -11.28125 26.45703125 C-7.91780511 23.97100676 -6.48067251 22.54277602 -5.71875 18.39453125 C-6.41229966 14.77266079 -7.32022503 13.6177792 -10.28125 11.45703125 C-14.57931222 9.8039304 -16.7176738 10.66395801 -20.28125 13.45703125 Z " fill="#8932F0" transform="translate(302.28125,59.54296875)"/>
<path d="M0 0 C5.12007147 4.64378575 9.02706755 8.96894148 10 16 C10.21061766 23.42704395 9.02259708 29.37567369 4 35 C-2.36664247 40.68405897 -7.24233785 42.44576395 -15.79296875 42.33203125 C-21.95284027 41.69428572 -26.85061806 39.49958674 -30.91796875 34.76953125 C-35.83816487 27.60544521 -36.76764491 21.63052209 -36 13 C-34.29317024 6.79988948 -30.36387711 2.41337634 -25 -1 C-16.82974495 -5.16105927 -7.78079559 -5.06656457 0 0 Z M-18.375 13.0625 C-21.19513758 15.74250242 -21.19513758 15.74250242 -21.6875 19 C-20.76080628 23.04375441 -19.31669279 24.54853142 -16 27 C-13 27.91666667 -13 27.91666667 -10 27 C-6.91332294 24.49598994 -6.91332294 24.49598994 -5 21 C-5 17.72486768 -5.39929635 15.91686347 -7.1875 13.1875 C-11.46387377 10.38573787 -14.03280829 10.4089384 -18.375 13.0625 Z " fill="#6B3EED" transform="translate(432,59)"/>
<path d="M0 0 C4.71588915 3.92815711 8.43044533 8.40686459 9.08984375 14.6328125 C9.18076432 22.96113711 8.92265582 28.95909172 3.140625 35.203125 C-2.84754914 40.75314005 -8.53449133 41.88507116 -16.56640625 41.7109375 C-23.03703136 41.10726402 -27.73771946 37.96931179 -32.24609375 33.4609375 C-37.06774122 27.17637532 -37.17403748 20.10451524 -36.24609375 12.4609375 C-34.53865142 6.24746394 -30.62534482 1.88409727 -25.24609375 -1.5390625 C-16.65996579 -5.91192321 -7.92481925 -5.53936861 0 0 Z M-20.24609375 13.4609375 C-21.79196251 16.55267502 -21.53968896 19.05523302 -21.24609375 22.4609375 C-19.82942708 25.04427083 -19.82942708 25.04427083 -17.24609375 26.4609375 C-13.30593362 27.02381752 -11.18827179 27.06489778 -7.80859375 24.8984375 C-5.64213347 21.51875946 -5.68321373 19.40109763 -6.24609375 15.4609375 C-8.17591792 12.74488867 -9.5881015 11.71401144 -12.68359375 10.5234375 C-16.03711518 10.44164429 -17.59537246 11.47289653 -20.24609375 13.4609375 Z " fill="#7839EE" transform="translate(367.24609375,59.5390625)"/>
</svg>
